<?xml version="1.0" encoding="UTF-8"?>
<svg id="OBJECTS" xmlns="http://www.w3.org/2000/svg" viewBox="0 0 500 743.79">
  <defs>
    <style>
      .cls-1 {
        fill: #fcfdff;
      }

      .cls-2 {
        fill: #261d2a;
      }

      .cls-3 {
        letter-spacing: -.02em;
      }

      .cls-4 {
        fill: #883828;
      }

      .cls-5 {
        fill: #c35041;
      }

      .cls-6 {
        fill: #5fa870;
      }

      .cls-7 {
        fill: #9d3420;
      }

      .cls-8 {
        fill: #830c1a;
      }

      .cls-9 {
        fill: #a17296;
      }

      .cls-10 {
        fill: #ffec00;
      }

      .cls-11 {
        letter-spacing: -.02em;
      }

      .cls-12 {
        fill: #ffcec7;
      }

      .cls-13 {
        fill: #ff9293;
      }

      .cls-14 {
        letter-spacing: 0em;
      }

      .cls-15 {
        fill: #fff;
        font-family: DMSans-SemiBold, 'DM Sans';
        font-size: 25.85px;
        font-weight: 600;
      }
    </style>
  </defs>
  <rect class="cls-13" width="500" height="743.79"/>
  <path class="cls-10" d="M356.54,229.7c-.2,0-.41-.06-.59-.18-.56-.38-2.1-2.9-3.77-6.06-4.11.46-7.54.61-8.02-.05-.21-.29-.26-.76.09-1.16.78-.86,2.61-2.88,4.82-5.18-1.6-3.63-2.72-6.91-2.3-7.94.2-.5.68-.76,1.21-.66,1,.18,3.89,1.58,6.7,3.05,2.91-2.7,5.6-4.84,6.87-4.87.46.02.78.19.95.36.18.18.25.43.21.67-.36,2.2-.82,4.83-1.33,7.48,6.82,3.9,6.9,4.59,6.95,4.98.04.34-.21.77-.52.9-.08.03-3.64.7-7.99,1.37-.95,3.84-1.95,6.8-2.86,7.19-.14.06-.28.09-.42.09ZM353.79,223.27c1.12,2.14,2.13,3.89,2.73,4.63.44-.78,1.02-2.68,1.64-5.23-1.44.21-2.93.42-4.37.6ZM349.78,218.61c-1.19,1.24-2.39,2.52-3.55,3.79,1.14,0,3.02-.16,5.2-.4-.56-1.1-1.12-2.25-1.65-3.39ZM350.94,217.42c.67,1.47,1.39,2.98,2.1,4.4,1.78-.21,3.68-.46,5.49-.72.36-1.57.73-3.31,1.1-5.14-1.52-.86-3.12-1.74-4.65-2.55-1.27,1.21-2.64,2.57-4.04,4.01ZM361.07,216.78c-.28,1.39-.57,2.77-.87,4.08,2.46-.36,4.61-.72,5.88-.97-1.01-.73-2.86-1.86-5.01-3.1ZM348.23,210.15c.12,1.05.93,3.23,2.02,5.72,1.05-1.07,2.16-2.18,3.26-3.24-2.28-1.18-4.24-2.12-5.27-2.49ZM356.17,212.29c1,.53,1.94,1.05,2.74,1.48.36.2.7.39,1.04.58.38-1.95.74-3.97,1.08-5.96-.97.49-2.72,1.93-4.85,3.9ZM361.6,208.2h.02-.02Z"/>
  <path class="cls-10" d="M71.59,419.92s4.26-14.48,5.42-12.71,4.64,11.47,4.64,11.47c0,0,12.25,4.13,11.93,4.96s-10.99,5.16-10.99,5.16c0,0-3.45,12.59-5.39,11.36s-5.29-11.29-5.29-11.29c0,0-10.97-1.06-9.61-3.56,1.35-2.5,9.29-5.39,9.29-5.39Z"/>
  <path class="cls-10" d="M399.43,292.48s4.26-14.48,5.42-12.71c1.16,1.77,4.64,11.47,4.64,11.47,0,0,12.25,4.13,11.93,4.96s-10.99,5.16-10.99,5.16c0,0-3.45,12.59-5.39,11.36-1.93-1.24-5.29-11.29-5.29-11.29,0,0-10.97-1.06-9.61-3.56,1.35-2.5,9.29-5.39,9.29-5.39Z"/>
  <path class="cls-10" d="M90.65,459.39s2.64-8.98,3.36-7.88c.72,1.1,2.88,7.11,2.88,7.11,0,0,7.59,2.56,7.39,3.07-.2.51-6.81,3.2-6.81,3.2,0,0-2.14,7.81-3.34,7.04-1.2-.77-3.28-7-3.28-7,0,0-6.8-.66-5.96-2.21.84-1.55,5.76-3.34,5.76-3.34Z"/>
  <path class="cls-10" d="M78.17,239.6c-.58,0-1.12,0-2.64-6.05-5.12-.99-5.57-1.59-5.72-1.79-.15-.19-.21-.55-.14-.78.09-.33.31-1.09,6.16-3.45,2.1-5.48,2.82-5.48,3.29-5.48.25,0,.58.18.73.37.38.51.72,1.82,1.23,3.92.16.66.36,1.45.47,1.8.31.14.99.38,1.55.58,3.01,1.08,3.79,1.45,3.93,2.17.05.27-.08.66-.29.85-.61.55-3.52,1.63-5.05,2.17-2.48,5.64-3.01,5.67-3.48,5.7-.01,0-.03,0-.05,0ZM71.79,231.08c1.02.3,2.89.72,4.52,1.02.3.06.54.28.61.58.42,1.69.96,3.61,1.35,4.71.57-1.02,1.43-2.83,2.13-4.43.09-.2.25-.35.46-.42,1.39-.49,2.96-1.09,3.94-1.52-.69-.29-1.62-.62-2.22-.84-1.72-.62-2.04-.75-2.27-1.05-.19-.26-.31-.69-.74-2.43-.16-.65-.41-1.66-.63-2.41-.51.97-1.22,2.63-1.78,4.1-.08.2-.24.37-.44.45-1.81.72-3.86,1.64-4.94,2.24Z"/>
  <path class="cls-10" d="M294.88,221.96c-.58,0-1.12,0-2.64-6.05-5.12-.99-5.57-1.59-5.72-1.79-.15-.19-.21-.55-.14-.78.09-.33.31-1.09,6.16-3.45,2.1-5.48,2.82-5.48,3.29-5.48.25,0,.58.18.73.37.38.51.72,1.82,1.23,3.92.16.66.36,1.45.47,1.8.31.14.99.38,1.55.58,3.01,1.08,3.79,1.45,3.93,2.17.05.27-.08.66-.29.85-.61.55-3.52,1.63-5.05,2.17-2.48,5.64-3.01,5.67-3.48,5.7-.01,0-.03,0-.05,0ZM288.5,213.44c1.02.3,2.89.72,4.52,1.02.3.06.54.28.61.58.42,1.69.96,3.61,1.35,4.71.57-1.02,1.43-2.83,2.13-4.43.09-.2.25-.35.46-.42,1.39-.49,2.96-1.09,3.94-1.52-.69-.29-1.62-.62-2.22-.84-1.72-.62-2.04-.75-2.27-1.05-.19-.26-.31-.69-.74-2.43-.16-.65-.41-1.66-.63-2.41-.51.97-1.22,2.63-1.78,4.1-.08.2-.24.37-.44.45-1.81.72-3.86,1.64-4.94,2.24Z"/>
  <g>
    <path class="cls-6" d="M181.04,161.72c116.08,15.75,79.53,121.77.12,132.27,0,0-.12,32.82-5.58,33.92-8.61,1.73-31.63-20.21-31.63-20.21,0,0-56.51,9.6-83.73-8.03-111.2-72.04,12.81-152.6,120.81-137.94Z"/>
    <g>
      <g>
        <path class="cls-9" d="M207.51,518.2s-4.07-137.01,35.2-162.83c59.48-39.1,166.22-18.51,170.27,30.96,1.92,23.51-9.54,126.63-9.54,126.63l-195.93,5.24Z"/>
        <g>
          <path class="cls-12" d="M295.47,325.89s4.71,35.05.25,39.43c-3.85,3.78-25.95,7.5-28.07,21.31-2.11,13.81-5.43,43.01,33.97,43.88,53.7,1.18,66.42-45.38,54.55-52.86-17.61-11.1-27.36-6.45-29.98-11.44-2.62-5,.5-46.43.5-46.43l-31.23,6.12Z"/>
          <path class="cls-7" d="M288.07,366.97s-7.61,17.5,12.22,22.71c21.25,5.58,33.35-22.71,33.35-22.71,0,0,56.97,5.87,66.13,38.36,9.16,32.49-17.48,99.86-17.48,99.86h-150.3s.87-18.84-10.27-61.69c-19.53-75.1,66.35-76.53,66.35-76.53Z"/>
          <path class="cls-12" d="M322.22,263.22s-13.63-17.68-38.53,3.99-26.12,28.45-22.91,35.57c3.21,7.13,10.89-.7,11.76,6.77.88,7.47-3.76,15.52-1.08,25.22,5.29,19.09,35.36,15.92,59.32-7.1,28.49-27.38,19.6-44.03-8.57-64.45Z"/>
          <path class="cls-2" d="M284.4,296.21c-.77,0-1.43-.3-1.94-.87-2.8-3.15.04-14.91.37-16.24.1-.42.53-.67.95-.57.42.11.67.53.57.95-1.18,4.72-2.42,12.91-.72,14.82.25.28.56.38.98.33,3.9-.5,6.5-9.84,7.18-13.39.08-.42.48-.7.91-.62.42.08.7.49.62.91-.27,1.42-2.79,13.91-8.51,14.65-.14.02-.27.03-.4.03Z"/>
          <path class="cls-2" d="M302.66,301.46c-.77,0-1.43-.3-1.94-.87-2.8-3.15.04-14.91.37-16.23.1-.42.53-.67.95-.57.42.11.67.53.57.95-1.18,4.72-2.42,12.91-.72,14.82.25.28.55.38.98.33,3.9-.5,6.5-9.84,7.18-13.39.08-.42.49-.7.91-.62.42.08.7.49.62.91-.27,1.42-2.79,13.91-8.51,14.65-.14.02-.27.03-.4.03Z"/>
          <path class="cls-5" d="M366.6,291.07c4.38-3.91,7.84-9.67,5.37-16.18-2.04-5.4-7.11-9.31-11.8-11.01,2.42-4.95,3.61-12.48-.54-17.41-15.62-18.56-38.23-8.35-44.4-3.33l1.56,5.31-6.24-6.17c-1.22-4.68-1.36-9.12-13.25-10.43-5.77-.64-9.58,1.06-11.93,3.74-3.95-3.21-9.21-4.59-14.12-1.36-11.12,7.32-10.2,18.69-2.96,21.75-.81,4.66,1.47,9.7,10.53,14.26,13.95,7.04,31.57-11.76,35.31-3.88,3.74,7.87,1.75,22.43,2.86,27.23.85,3.69,4.67,3.05,6.55,2.62-3.41,7.83-5.68,31.02-15.92,28.98-12.92-2.58,9.41-21.31-20.75-24.47-18.49-1.93-46.63,49.06,13.51,52.37,24.19,1.33,21.32-34.43,22.92-43.78.9-5.27,5.06-6.23,8.51-6.06-2.14,5.36-4.5,9.79-4.21,12.97.74,8.09,7.61,24.76,25.68,18.85,11.07-3.62,11.33-12.73,8.23-18.22,2.81-.96,5.62-2.87,7.49-6.14,3.93-6.87,1.99-16.23-2.39-19.63ZM309.32,253.67"/>
          <path class="cls-1" d="M278.5,312.84s10.75,4.39,17.65-.03c6.9-4.42,5.48,16.98-7.05,15.21-12.53-1.77-13.46-16.11-10.59-15.18Z"/>
          <path class="cls-8" d="M325.77,364.82s31.19,2.15,8.99,38.95c-10.97,18.18-34.46-10.86-34.46-10.86,0,0-7.66,12.47-19.03,9.32s-5.37-42.25,14.45-36.9c0,0-7.06,14.36,5.21,20.23,12.26,5.87,24.84-20.73,24.84-20.73Z"/>
          <path class="cls-12" d="M385.82,442.94c-7.12-6.75-34.96-7.67-34.96-7.67,0,0-1.58,35.18-9.87,26.16-8.29-9.02.37-45.84-6.23-50.4,0,0-7.34-10.9-29.62-10.57-44.82-9.98-44.86,53.28-53.14,62.3-8.29,9.02-1.13-31.23-1.13-31.23,0,0-30.77-5.25-30.77,4.56,0,8.28-4.23,69.11,30.92,69.11,43.24,0,40.38-75.7,40.38-75.7,0,0,5.23,1.1,9.71.88,4.48.22,9.71-.88,9.71-.88,0,0-4.93,69.39,29.61,75.97,34.54,6.59,52.52-55.78,45.39-62.53Z"/>
          <path class="cls-2" d="M317.6,443.57c-1.21,0-3.29-.28-5.02-1.93-2.33-2.22-3.21-6.08-2.62-11.5-4.94-.9-21.49-4.32-21.32-9.88.03-.84.41-1.58,1.11-2.15.83-.68,2.13-1.1,3.68-1.35-2.69-.7-4.86-1.58-5.68-2.63-.47-.61-.49-1.18-.42-1.55.37-2.03,4.04-3,8.36-3.44-2.06-.58-3.73-1.4-4.4-2.56-.36-.62-.63-1.64.15-2.97,1.6-2.72,6.83-3.6,9.8-3.88,11.31-1.06,26.65,2.31,34.1,10.8.28.32.25.82-.07,1.1-.32.28-.81.25-1.1-.07-7.03-8.02-22.14-11.29-32.78-10.28-4.49.42-7.7,1.59-8.6,3.12-.43.73-.29,1.15-.15,1.4,1.02,1.78,6.52,2.69,11.56,3.01,1.97.02,3.67.09,4.79.15.42.02.75.37.74.79,0,.42-.35.76-.77.76-.52,0-2.36,0-4.67-.14-7.84-.04-15.1.76-15.41,2.47,0,.04-.03.14.12.32,1.05,1.36,6,2.53,11.35,3.36,4.61.23,9.04,1,9.91,1.15.41.07.69.45.64.87-.05.41-.42.71-.83.68-.93-.07-5.21-.42-9.81-1.12-4.05-.21-7.99-.02-9.51,1.21-.35.29-.52.6-.53.99-.11,3.51,12.68,7.04,20.76,8.43.41.07.69.45.64.87-.67,5.2.04,8.97,2.05,10.9,1.99,1.9,4.67,1.47,4.7,1.47.43-.07.83.21.9.63.07.42-.21.83-.63.9-.04,0-.43.07-1.01.07Z"/>
          <path class="cls-2" d="M285.08,437.6c-2.65,0-4.39-2.7-4.47-2.82-.23-.36-.12-.84.24-1.07.36-.23.84-.12,1.08.24.01.02,1.49,2.27,3.38,2.09,1.28-.12,3.24-1.41,5.36-6.82.16-.4.61-.6,1.01-.44.4.16.6.61.44,1.01-1.94,4.94-4.18,7.56-6.67,7.8-.13.01-.25.02-.37.02Z"/>
          <path class="cls-2" d="M345.61,426.26c-.39,0-.73-.3-.77-.7-1.18-11.2,10.13-42.46,10.61-43.78.15-.4.59-.61,1-.47.4.15.61.59.47,1-.12.32-11.66,32.24-10.52,43.09.05.43-.26.81-.69.86-.03,0-.05,0-.08,0Z"/>
          <path class="cls-2" d="M391.98,443.51c-.21,0-.42-.09-.58-.26-15.05-16.69-43.52-8.49-43.81-8.4-.41.12-.85-.11-.97-.53-.12-.41.11-.85.53-.97.3-.09,29.71-8.56,45.41,8.85.29.32.26.81-.06,1.1-.15.13-.34.2-.52.2Z"/>
          <path class="cls-2" d="M356.18,499.63c-.28,0-.55-.15-.69-.42-1.71-3.26-3.89-5.15-6.5-5.62-4.91-.89-9.85,3.45-9.9,3.49-.32.29-.81.26-1.1-.06-.29-.32-.26-.81.06-1.1.22-.2,5.55-4.88,11.21-3.87,3.11.56,5.67,2.73,7.61,6.43.2.38.05.85-.33,1.05-.12.06-.24.09-.36.09Z"/>
          <path class="cls-2" d="M254.94,503.15c-.4,0-.74-.31-.78-.72,0-.08-.66-7.8-5-10.13-2.16-1.16-4.95-.79-8.3,1.07-.38.21-.85.07-1.06-.3-.21-.38-.08-.85.3-1.06,3.85-2.15,7.14-2.51,9.8-1.08,5.1,2.74,5.79,11.04,5.81,11.39.03.43-.29.8-.72.84-.02,0-.04,0-.06,0Z"/>
          <path class="cls-2" d="M255.07,428.6c-.41,0-.76-.32-.78-.74-1.38-27.35,8.56-39.4,8.98-39.9.28-.33.77-.37,1.1-.09.33.28.37.77.09,1.1-.1.12-9.96,12.14-8.61,38.81.02.43-.31.8-.74.82-.01,0-.03,0-.04,0Z"/>
          <g>
            <path class="cls-1" d="M390.58,423.05c-.18,0-.35-.06-.5-.18-.33-.28-.37-.77-.1-1.09.08-.1,1.76-2.24-.25-4.99-.25-.35-.18-.83.17-1.09.35-.25.84-.18,1.09.17,2.2,3.01,1.08,5.84.19,6.91-.15.18-.38.28-.6.28Z"/>
            <path class="cls-1" d="M384.9,418.91c-.18,0-.35-.06-.5-.18-.33-.28-.37-.77-.1-1.09.08-.1,1.76-2.24-.25-4.99-.25-.35-.18-.83.17-1.09.35-.25.84-.18,1.09.17,2.2,3.01,1.08,5.84.19,6.91-.15.18-.38.28-.6.28Z"/>
            <path class="cls-1" d="M390.09,412.29c-.18,0-.35-.06-.5-.18-.33-.28-.37-.77-.1-1.09.08-.1,1.76-2.24-.25-4.99-.25-.35-.18-.84.17-1.09.35-.25.84-.18,1.09.17,2.2,3.02,1.08,5.84.19,6.91-.15.18-.38.28-.6.28Z"/>
            <path class="cls-1" d="M384.65,407c-.18,0-.35-.06-.5-.18-.33-.28-.37-.77-.1-1.09.08-.1,1.76-2.24-.25-4.99-.25-.35-.18-.83.17-1.09.35-.25.84-.18,1.09.17,2.2,3.01,1.08,5.84.19,6.91-.15.18-.38.28-.6.28Z"/>
            <path class="cls-1" d="M379.65,413.6c-.18,0-.35-.06-.5-.18-.33-.28-.37-.77-.1-1.09.08-.1,1.76-2.24-.25-4.99-.25-.35-.18-.83.17-1.09.35-.25.84-.18,1.09.17,2.2,3.01,1.08,5.84.19,6.91-.15.18-.38.28-.6.28Z"/>
            <path class="cls-1" d="M389.03,400.13c-.18,0-.35-.06-.5-.18-.33-.28-.37-.76-.1-1.09h0c.07-.09,1.76-2.23-.25-4.99-.25-.35-.18-.84.17-1.09.35-.25.84-.18,1.09.17,2.2,3.02,1.08,5.84.19,6.91-.15.19-.38.28-.6.28Z"/>
            <path class="cls-1" d="M384.18,396.76c-.11,0-.21-.02-.32-.07-.39-.18-.57-.63-.39-1.02.05-.12,1.02-2.51-1.78-4.8-.33-.27-.38-.76-.11-1.1.27-.33.76-.38,1.1-.11,3.01,2.45,2.77,5.42,2.22,6.64-.13.29-.41.46-.71.46Z"/>
          </g>
          <path class="cls-2" d="M283.45,268.57c-.35,0-.7-.01-1.05-.03-5.01-.3-10.14-2.85-10.25-7.15-.05-1.97.68-3.54,2.04-4.51-1.13-1.98-1.94-4.3-2.03-6.56-.14-3.54,1.49-6.33,4.59-7.85,5.95-2.93,10.61-1.71,13.16.47,1.62-2.04,4.1-3.52,7.61-3.52h.12c2.87.03,5.12,1.03,6.68,2.97,3.89,4.84,2.07,13.83,1.99,14.21-.09.42-.5.68-.92.6-.42-.09-.69-.5-.6-.92.02-.09,1.76-8.64-1.68-12.91-1.26-1.56-3.1-2.36-5.48-2.39-3.39-.04-5.41,1.52-6.62,3.12,1.71,2.23,1.83,5.09.28,7.4-1.03,1.54-1.94,1.57-2.51,1.33-1.34-.56-1.49-2.97-1.05-5.11.24-1.17.67-2.37,1.3-3.47-2.12-1.91-6.21-3.02-11.59-.37-3.23,1.59-3.8,4.35-3.72,6.39.08,2.03.82,4.14,1.85,5.92.12-.04.25-.08.38-.12,2.75-.78,6.22.18,7.28,2.01.61,1.05.37,2.24-.66,3.26-.89.87-2.1,1.06-3.42.54-1.36-.54-2.85-1.89-4.11-3.67-.76.58-1.36,1.54-1.32,3.16.09,3.36,4.48,5.38,8.79,5.63,5.37.35,11.17-2.02,12.02-7.94.06-.42.45-.7.88-.66.43.06.72.46.66.88-.94,6.51-6.84,9.31-12.6,9.31ZM276.44,257.53c1.03,1.41,2.2,2.46,3.26,2.88,1.11.43,1.6-.04,1.76-.2.76-.75.5-1.19.41-1.36-.63-1.09-3.24-1.9-5.43-1.32ZM290.11,245.52c-.21.42-.37.81-.48,1.12-.86,2.43-.58,4.38-.26,4.72.02-.05.25-.21.62-.75,1.07-1.6,1.1-3.48.12-5.09Z"/>
          <path class="cls-2" d="M288.5,351.26c-2.69,0-5.11-1.38-6.9-3.97-.86-1.24-1.52-2.72-1.97-4.22-.2.14-.4.26-.61.38-2.84,1.63-5.65,1.28-7.92-.98-1.92-1.92-2.76-3.95-2.47-6.04.55-4.1,5.24-6.82,5.44-6.93.37-.21.85-.08,1.06.29.21.37.08.85-.29,1.06-.04.02-4.22,2.45-4.67,5.79-.21,1.58.47,3.17,2.03,4.72,2.21,2.2,4.5,1.61,6.04.73.35-.2.68-.42.99-.67-.42-2.24-.31-4.38.43-5.77.52-.98,1.35-1.52,2.33-1.52h.03c1.04.01,1.77.54,2.01,1.46.45,1.7-.96,4.44-3.07,6.41.37,1.52,1.01,3.08,1.93,4.4,1.17,1.7,3.24,3.64,6.43,3.25,3.22-.4,5.49-2.04,6.89-3.95-.56-.48-1.07-.99-1.52-1.52-1.78-2.09-3.14-5.01-2.17-6.83.29-.54,1.05-1.41,2.86-1.2,2.51.29,4.07,2.15,4.08,4.85,0,1.42-.4,2.92-1.17,4.33,1.83,1.24,4.47,2.26,7.6,1.18,4.87-1.68,6.28-6.09,5.54-9.47-.54-2.44-2.37-4.78-5.2-4.48-.43.04-.81-.27-.86-.69-.04-.43.27-.81.69-.86,3.29-.35,6.06,1.94,6.88,5.69.89,4.04-.78,9.29-6.55,11.28-3.36,1.16-6.5.28-8.95-1.35-1.71,2.29-4.44,4.12-7.94,4.56-.34.04-.68.06-1.01.06ZM294.83,337.67c-.48,0-.79.14-.94.41-.44.82.2,2.99,1.98,5.08.24.29.64.72,1.16,1.18.59-1.17.87-2.35.87-3.34,0-1.12-.36-3.04-2.7-3.31-.13-.02-.25-.02-.36-.02ZM281.99,335.69c-.25,0-.62.08-.95.69-.44.83-.58,2.18-.42,3.73,1.36-1.55,2.11-3.3,1.9-4.13-.03-.12-.08-.29-.52-.29h-.01Z"/>
          <path class="cls-2" d="M351.21,324.82c-.08,0-.17,0-.25,0-4.54-.15-8.27-4.35-8.42-4.53-.28-.32-.25-.82.07-1.1.32-.28.82-.25,1.1.07.03.04,3.45,3.88,7.31,4,1.65.03,3.23-.62,4.61-2,1.82-1.82,1.47-4.58.85-6.57-.57-1.84-1.53-3.66-2.66-5.25-.39.09-.8.17-1.21.21-3.23.38-6.5-.83-7.61-2.8-.58-1.04-.47-2.18.3-3.15.66-.82,1.65-1.15,2.79-.94,1.95.37,4.33,2.3,6.33,4.86,2.1-.78,4.6-2.67,5.86-7.15,1.65-5.88-.67-10.9-3.68-13.99-.83.52-1.67.93-2.48,1.25-2.78,1.09-5.28,1.05-6.53-.09-.59-.53-1.18-1.54-.67-3.31.65-2.26,2.7-3.2,5.36-2.44,1.5.43,3.06,1.32,4.49,2.59,2.33-1.74,4.36-4.37,4.65-7.79.36-4.19-3.05-6.69-5.12-7.81-.9-.49-1.85-.88-2.8-1.19-2.34,2.02-5.09,3.28-6.98,2.95-1.09-.18-1.84-.86-2.1-1.91-.25-.99.04-1.88.82-2.49,1.46-1.14,4.64-1.18,7.87-.3.72-.7,1.39-1.49,1.96-2.35,1.47-2.22,2.73-5.61.45-9.19-1.36-2.13-3.14-3.39-5.28-3.73-5.2-.83-10.98,3.86-11.03,3.91-.33.27-.82.22-1.1-.11-.27-.33-.23-.82.11-1.1.26-.21,6.38-5.18,12.26-4.25,2.6.41,4.74,1.9,6.35,4.43,2.14,3.35,1.97,7.21-.46,10.89-.47.71-1.01,1.39-1.61,2.02.78.29,1.55.63,2.28,1.03,4.14,2.25,6.25,5.55,5.93,9.32-.33,3.83-2.52,6.78-5.08,8.75,3.34,3.59,5.59,9.23,3.88,15.31-1.1,3.93-3.38,6.74-6.41,8.03,1.12,1.67,2.05,3.5,2.61,5.3,1.07,3.45.64,6.26-1.24,8.14-1.63,1.63-3.49,2.46-5.52,2.46ZM347.41,304.25c-.5,0-.75.23-.9.42-.38.48-.43.92-.15,1.42.68,1.23,3.2,2.35,6.06,2.01.11-.01.22-.03.33-.05-1.71-2.05-3.59-3.5-4.96-3.76-.14-.03-.27-.04-.38-.04ZM350.53,283.19c-.91,0-1.77.37-2.12,1.58-.23.8-.16,1.39.22,1.73.77.7,2.79.62,4.91-.21.6-.24,1.23-.53,1.85-.9-1.21-1-2.46-1.68-3.55-1.99-.42-.12-.87-.21-1.31-.21ZM348.82,266.88c-1.18,0-2.12.2-2.62.59-.29.23-.37.48-.27.87.11.44.38.68.85.76,1.14.2,3.03-.55,4.86-1.91-1.01-.21-1.98-.31-2.82-.31Z"/>
          <path class="cls-2" d="M319.54,358.23h-.03l-38.28-1.28c-.43-.02-.77-.37-.75-.81.01-.43.38-.76.8-.75l37.63,1.25,6.52-29.77c.09-.42.5-.69.93-.6.42.09.69.51.59.93l-6.66,30.41c-.08.36-.4.61-.76.61Z"/>
          <path d="M287.28,356.68c0,1.97-2.46,3.57-5.5,3.57s-5.5-1.6-5.5-3.57,2.46-3.57,5.5-3.57,5.5,1.6,5.5,3.57Z"/>
          <path d="M336.32,297.23c4.74-15.07,11.4-49.79-25.78-54.95,0,0,.44,7.39-1.22,11.39,0,0,26.48,13.55,16.82,40.43-6.07.46-11.79,4.63-14.29,11.1-3.37,8.72.41,18.31,8.45,21.42,8.03,3.1,17.28-1.45,20.65-10.18,2.78-7.19.69-14.95-4.62-19.2Z"/>
          <path class="cls-1" d="M327.24,323.19c-6.14,0-11.14-5.44-11.14-12.13s5-12.13,11.14-12.13,11.14,5.44,11.14,12.13-5,12.13-11.14,12.13ZM327.24,300.49c-5.28,0-9.58,4.74-9.58,10.57s4.3,10.57,9.58,10.57,9.58-4.74,9.58-10.57-4.3-10.57-9.58-10.57Z"/>
        </g>
        <path class="cls-1" d="M337.6,275.57c-.42,0-.77-.34-.78-.77-.28-17.38-13.97-21.64-14.55-21.81-.41-.12-.65-.56-.53-.97.12-.41.55-.65.97-.53.15.04,15.37,4.73,15.67,23.28,0,.43-.34.78-.77.79h-.01Z"/>
      </g>
      <g>
        <path d="M120.07,466.71s-21.41-112.17-16.54-113.28c15.36-3.5,146.58-4.97,146.58-4.97,8.31,6.46,23.44,118.17,23.44,118.17-15.89.06-153.48.08-153.48.08Z"/>
        <path class="cls-2" d="M113.34,359.5c-.42,0-.76-.33-.78-.75-.02-.43.32-.79.75-.81,4.65-.19,114.03-4.64,127.25-1.34.42.11.67.53.57.95-.1.42-.53.66-.94.57-13-3.26-125.67,1.34-126.81,1.39h-.03Z"/>
        <path class="cls-2" d="M141.95,441.37c-.37,0-.69-.26-.76-.62l-10.87-53.25c-.05-.23.01-.46.16-.64.15-.18.36-.29.6-.29l84.8-1.01c.37-.01.7.26.78.63l10.2,52.97c.04.23-.02.46-.16.64-.15.18-.36.28-.59.29l-84.13,1.29h-.01ZM132.03,388.11l10.55,51.69,82.56-1.27-9.9-51.42-83.2.99Z"/>
        <path d="M273.56,487.75h-89.07s-7.44-32.32,5.44-60.39h19.28l-5.58-31.55h-57.58l5.13,31.55h7.72c-6.96,12-15.74,33.14-12.85,60.39h-54.74v23.28l184.72.48-2.47-23.75Z"/>
        <path class="cls-1" d="M158.41,477.26c-.43,0-.78-.35-.78-.78,0-16.15,3.93-27.87,7.22-34.86,3.59-7.61,7.14-11.35,7.29-11.5.3-.31.79-.32,1.1-.02.31.3.32.79.02,1.1-.14.15-14.08,15.02-14.08,45.28,0,.43-.35.78-.78.78Z"/>
      </g>
      <g>
        <path class="cls-4" d="M80.96,507.96s333.23-7.04,335.02-4.24,0,27.4,0,27.4l-335.02,2.19c0-3.28,0-25.35,0-25.35Z"/>
        <path class="cls-2" d="M189.07,528.18c-14.67,0-31.45-3.98-47.99-11.45-35.91-16.23-55.48,5.27-55.67,5.49-.29.32-.78.35-1.1.07-.32-.28-.35-.78-.07-1.1.2-.23,20.53-22.57,57.48-5.88,47.26,21.36,79.04,10.13,89.58-10.47.2-.38.67-.53,1.05-.34.38.2.54.67.34,1.05-6.73,13.17-19.66,20.91-37.38,22.38-2.03.17-4.12.25-6.24.25Z"/>
        <path class="cls-2" d="M187.37,515.77c-9.67,0-21.26-2.48-34.31-9.9-.37-.21-.51-.69-.29-1.06.21-.37.69-.51,1.06-.29,19.9,11.31,36.11,10.74,46.21,8.26,10.95-2.68,17.28-8.12,17.34-8.17.33-.28.82-.25,1.1.08.28.32.25.82-.08,1.1-.17.15-11.77,9.99-31.03,9.99Z"/>
        <path class="cls-2" d="M84.41,530.89c-.22,0-.43-.09-.58-.26-.28-.32-.25-.81.07-1.1,29.08-25.62,66.22-3.01,66.59-2.78.37.23.48.71.25,1.07s-.71.48-1.07.25c-.36-.23-36.53-22.22-64.73,2.62-.15.13-.33.19-.52.19Z"/>
        <path class="cls-2" d="M98.53,533.97c-.25,0-.5-.12-.65-.35-.24-.36-.14-.84.22-1.08,10.88-7.19,19.26-7.66,24.38-6.78,5.62.96,8.6,3.65,8.73,3.77.32.29.34.78.05,1.1-.29.32-.78.34-1.1.05-.45-.41-11.35-9.95-31.19,3.16-.13.09-.28.13-.43.13Z"/>
        <path class="cls-2" d="M222.43,530.89c-.17,0-.33-.05-.48-.16-.34-.26-.4-.75-.14-1.09.11-.14,11.22-14.27,32.18-18.95,11.06-2.47,22.04,1.86,32.66,6.05,9.8,3.86,19.95,7.85,30.16,6.55,20.85-2.66,27.14-20.3,27.2-20.48.14-.41.58-.62.99-.48.41.14.62.58.48.99-.06.19-6.68,18.73-28.47,21.52-10.61,1.35-20.94-2.72-30.93-6.65-10.88-4.29-21.16-8.34-31.75-5.98-20.39,4.55-31.18,18.24-31.29,18.38-.15.2-.38.3-.62.3Z"/>
        <path class="cls-2" d="M298.49,513.17c-7.37,0-15.39-2.08-22.96-8.24-.33-.27-.38-.76-.11-1.1.27-.34.76-.38,1.1-.11,22.2,18.08,48.59-.56,48.86-.75.35-.25.84-.17,1.09.18.25.35.17.84-.18,1.09-.18.13-12.63,8.93-27.8,8.93Z"/>
        <path class="cls-2" d="M241.49,533.97c-.22,0-.43-.09-.58-.26-.29-.32-.25-.81.07-1.1,25.57-22.61,51.35-3.32,51.61-3.12.34.26.41.75.14,1.09-.26.34-.75.41-1.09.14-1.01-.77-25.03-18.7-49.63,3.05-.15.13-.33.19-.52.19Z"/>
        <path class="cls-2" d="M333.16,528.65c-.75,0-1.17-.1-1.24-.12-.42-.11-.66-.54-.55-.95.11-.41.53-.66.95-.55.14.03,9.07,1.86,26.33-17.41,10.24-11.43,20.62-5.56,30.66.12,8.37,4.73,16.27,9.2,24.29,4.65.38-.21.85-.08,1.06.3.21.37.08.85-.29,1.06-8.79,4.98-17.45.08-25.83-4.65-9.94-5.62-19.33-10.93-28.74-.43-14.59,16.28-23.52,18-26.65,18Z"/>
        <path class="cls-2" d="M353.2,528.64c-.19,0-.39-.07-.54-.22-.31-.3-.32-.79-.02-1.1,20.65-21.39,53.11-.78,53.43-.57.36.23.47.72.23,1.08-.23.36-.72.46-1.08.23-.32-.2-31.71-20.12-51.46.34-.15.16-.36.24-.56.24Z"/>
        <path class="cls-2" d="M385.71,530.48c-.13,0-.25-.03-.37-.09-9.92-5.4-19.51-.06-19.61,0-.38.21-.85.08-1.06-.29-.21-.37-.08-.85.29-1.06.42-.24,10.43-5.83,21.13,0,.38.21.52.68.31,1.06-.14.26-.41.41-.69.41Z"/>
        <path class="cls-2" d="M404.48,508.65c-7.87,0-13.98-4.82-14.07-4.89-.34-.27-.39-.76-.12-1.1.27-.33.76-.39,1.1-.12.5.4,12.44,9.77,24.1.57.34-.26.83-.21,1.09.13.27.34.21.83-.13,1.09-4.08,3.22-8.23,4.31-11.98,4.31Z"/>
      </g>
    </g>
  </g>
  <text class="cls-15" transform="translate(54.17 234.97) rotate(-8.56)"><tspan x="0" y="0">Je </tspan><tspan class="cls-3" x="35.28" y="0">v</tspan><tspan x="48.98" y="0">ous </tspan><tspan class="cls-11" x="100.05" y="0">v</tspan><tspan class="cls-14" x="113.75" y="0">eux </tspan><tspan x="-24.86" y="31.02">dans mon équipe</tspan></text>
</svg>